<svg xmlns="http://www.w3.org/2000/svg" viewBox="0 0 108 108" width="108" height="108"><path fill="#C6F1E7" fill-rule="evenodd" d="M0,0 H108 Q108,0 108,0 V108 Q108,108 108,108 H0 Q0,108 0,108 V0 Q0,0 0,0 Z"/><path fill="#0B6B5E" fill-rule="evenodd" d="M30,39 H35 V72 H69 V77 H33 Q30,77 30,74 Z M43,31 H74 Q78,31 78,35 V65 Q78,69 74,69 H43 Q39,69 39,65 V35 Q39,31 43,31 Z M45,36 H72 Q73,36 73,37 V63 Q73,64 72,64 H45 Q44,64 44,63 V37 Q44,36 45,36 Z"/><path fill="#0B6B5E" fill-rule="evenodd" d="M45,61 L53,49 L59,56 L64,50 L72,61 Z M62,42 a3,3 0 1,0 6,0 a3,3 0 1,0 -6,0 Z"/><path fill="#0B6B5E" fill-rule="evenodd" d="M75,66 Q76.08,70.92 81,72 Q76.08,73.08 75,78 Q73.92,73.08 69,72 Q73.92,70.92 75,66 Z"/></svg>